<svg xmlns="http://www.w3.org/2000/svg" width="500" height="500" fill="none" viewBox="0 0 500 500"><path fill="#272735" fill-rule="evenodd" d="M252.783.024C251.925 0 251.066 0 250.208 0s-1.716 0-2.574.024C111.485 1.381 1.357 111.402 0 247.423a94.7 94.7 0 0 1 22.378-58.737C44.159 107.902 107.981 44.141 188.843 22.38a234.6 234.6 0 0 1 59.221-8.071c.715-.024 1.43-.024 2.144-.024.713 0 1.431 0 2.145.024 32.912.857 60.986 21.404 72.853 50.262a80 80 0 0 1 5.004 17.736 82 82 0 0 1 1.025 12.928 80.45 80.45 0 0 1-16.561 49 119 119 0 0 1 11.771 8.165 94.7 94.7 0 0 0 19.09-57.165c0-1.501-.043-3.002-.107-4.502a187.15 187.15 0 0 1 64.033 64.153 111 111 0 0 0-4.765-.116 94.94 94.94 0 0 0-57.22 19.071 93 93 0 0 0-10.795 9.475 94.55 94.55 0 0 0-21.139 32.978v.023a94.1 94.1 0 0 0-6.171 33.689c0 32.467-26.124 58.927-58.484 59.513l-.656-.002c-32.862 0-59.578-26.691-59.578-59.521a94.1 94.1 0 0 1-6.171 33.688v.025a74.33 74.33 0 0 0 32.004 31.974h.024a73.6 73.6 0 0 0 33.721 8.119 80.7 80.7 0 0 1 54.574 21.166 83 83 0 0 1 9.891 10.785 80.44 80.44 0 0 1 16.563 48.998 82.6 82.6 0 0 1-.99 12.714l-.476.226a184.4 184.4 0 0 1-43.556 14.446c21.081-27.719 4.25-67.864-30.297-72.261a45 45 0 0 0-5.708-.362c-19.152.017-37.972-5-54.575-14.548a111.2 111.2 0 0 1-32.316-28.284 93 93 0 0 1-10.795 9.474 121.8 121.8 0 0 0 21.449 21.429 119 119 0 0 0 11.772 8.168 123.9 123.9 0 0 0 64.465 18.047c23.827 0 38.718 25.793 26.805 46.427a30.95 30.95 0 0 1-26.805 15.476q2.483 0 4.95-.064-2.685.077-5.391.076c-23.825.067-38.79-25.684-26.933-46.352a30.95 30.95 0 0 1 26.933-15.551 123.8 123.8 0 0 1-29.314-3.5c-26.522 22.564-18.672 65.379 14.13 77.065a45.2 45.2 0 0 0 15.184 2.625 199 199 0 0 0 74.998-14.572 191 191 0 0 0 17.659-8.165 201.35 201.35 0 0 0 84.771-84.689 96.5 96.5 0 0 1-17.732 2.547 187.2 187.2 0 0 1-64.035 64.156c.064-1.508.105-3.018.105-4.525a94.72 94.72 0 0 0-19.089-57.166l-.156-.209a121.8 121.8 0 0 0 21.156-21.196 94.93 94.93 0 0 0 57.205 19.06c1.597 0 3.193-.049 4.789-.119a96.5 96.5 0 0 0 17.731-2.548c41.763-10.181 71.564-47.03 72.782-89.998.025-.855.025-1.712.025-2.568v-.007c0-.855 0-1.712-.025-2.568C498.623 111.865 389.221 2.123 253.696.052Zm83.898 316.671a110.3 110.3 0 0 1-19.884 19.922 94.7 94.7 0 0 0-32.819-20.935h-.024l-.227-.086a74.35 74.35 0 0 0 31.816-31.877v-.024a73.4 73.4 0 0 0 8.127-33.691 80.52 80.52 0 0 1 21.185-54.521 83.3 83.3 0 0 1 10.797-9.881 80.62 80.62 0 0 1 49.046-16.547c4.325.001 8.643.343 12.915 1.02l.002.003a184 184 0 0 1 14.556 44.001c-27.7-21.152-67.911-4.387-72.38 30.178a46 46 0 0 0-.373 5.747 109.03 109.03 0 0 1-14.561 54.524 110.5 110.5 0 0 1-8.176 12.167m68.015-97.641c16.581-.008 30.226 13.046 30.954 29.611q.005.67.005 1.341c-.021 23.85-25.853 38.733-46.497 26.79a30.98 30.98 0 0 1-15.447-25.695q.004-.546.005-1.095c.008-17.103 13.878-30.96 30.98-30.952m-49.045 95.355a122.4 122.4 0 0 0 14.556-35.097c22.614 26.529 65.467 18.629 77.135-14.22a45.3 45.3 0 0 0 2.611-15.086 198.5 198.5 0 0 0-14.584-74.929 192 192 0 0 0-8.175-17.641 201.34 201.34 0 0 0-84.262-84.421l-.066-.28a95.14 95.14 0 0 0-31.063-50.162c80.544 21.934 144.073 85.564 165.795 166.125a234 234 0 0 1 8.078 59.164c.025.715.025 1.43.025 2.144s0 1.427-.025 2.142c-.858 32.88-21.425 60.926-50.307 72.785a80.4 80.4 0 0 1-17.755 4.999 83 83 0 0 1-12.941 1.024 80.62 80.62 0 0 1-49.03-16.535Zm-40.133-98.094v-.024a74.33 74.33 0 0 0-32.004-31.975h-.024a73.6 73.6 0 0 0-33.721-8.119 80.7 80.7 0 0 1-54.575-21.166 83.3 83.3 0 0 1-9.891-10.785 80.44 80.44 0 0 1-16.562-49c.001-4.256.333-8.507.99-12.712l.475-.226a184.4 184.4 0 0 1 43.556-14.447c-21.081 27.72-4.248 67.866 30.3 72.263 1.892.24 3.798.361 5.705.361a109.3 109.3 0 0 1 54.575 14.547 111.2 111.2 0 0 1 32.316 28.284 93 93 0 0 1 10.795-9.475 121.8 121.8 0 0 0-21.449-21.428 119 119 0 0 0-11.772-8.167 123.9 123.9 0 0 0-64.465-18.047c-23.827.067-38.79-25.684-26.935-46.352a30.95 30.95 0 0 1 26.935-15.551q-2.498 0-4.983.065 2.703-.078 5.424-.078c23.826-.066 38.789 25.686 26.934 46.353a30.95 30.95 0 0 1-26.934 15.551 124 124 0 0 1 29.314 3.5c26.523-22.563 18.674-65.377-14.127-77.066a45.3 45.3 0 0 0-15.187-2.623 199 199 0 0 0-74.997 14.571 192 192 0 0 0-17.66 8.166 201.34 201.34 0 0 0-84.769 84.689 96.5 96.5 0 0 1 17.731-2.547A187.2 187.2 0 0 1 154.55 90.72a102 102 0 0 0-.109 4.526 94.72 94.72 0 0 0 19.09 57.166l.157.208a121.8 121.8 0 0 0-21.156 21.197 94.93 94.93 0 0 0-57.205-19.059c-1.597 0-3.193.048-4.791.119a96.5 96.5 0 0 0-17.73 2.547C31.044 167.606 1.244 204.454.025 247.423 0 248.279 0 249.137 0 249.993s0 1.714.025 2.572C1.379 388.136 110.782 497.879 246.31 499.947l.907.028a89 89 0 0 0 2.576.025c.858 0 1.715 0 2.573-.025 136.149-1.357 246.276-111.377 247.634-247.4a94.7 94.7 0 0 1-22.379 58.738c-21.78 80.785-85.603 144.544-166.464 166.306a234.7 234.7 0 0 1-59.221 8.072c-.714.023-1.43.023-2.143.023-.715 0-1.432 0-2.146-.023-32.911-.857-60.986-21.405-72.853-50.262a80 80 0 0 1-5.005-17.737 82.4 82.4 0 0 1-1.024-12.928 80.44 80.44 0 0 1 16.561-48.999 119 119 0 0 1-11.772-8.167 94.7 94.7 0 0 0-19.089 57.166c0 1.499.042 3.001.107 4.501a187.2 187.2 0 0 1-64.033-64.151c1.588.068 3.176.115 4.765.115a94.92 94.92 0 0 0 57.22-19.071 93 93 0 0 0 10.795-9.475 94.55 94.55 0 0 0 21.139-32.978v-.023a94.1 94.1 0 0 0 6.172-33.689c0-32.467 26.123-58.927 58.483-59.513l.656.001c32.863 0 59.578 26.692 59.578 59.522a94.1 94.1 0 0 1 6.171-33.688m-158.451 210.67a201.35 201.35 0 0 1-84.261-84.422 191 191 0 0 1-8.174-17.642 198.5 198.5 0 0 1-14.585-74.928c.027-34.849 37.77-56.601 67.937-39.152a45.3 45.3 0 0 1 11.809 9.846 122.4 122.4 0 0 1 14.556-35.097l.007-.013a80.62 80.62 0 0 0-49.029-16.533c-4.334.002-8.66.344-12.941 1.023a80.4 80.4 0 0 0-17.755 4.999c-28.882 11.859-49.45 39.905-50.307 72.785-.025.714-.025 1.428-.025 2.142 0 .715 0 1.43.025 2.144a234 234 0 0 0 8.078 59.166c21.723 80.559 85.251 144.19 165.796 166.123a95.13 95.13 0 0 1-31.063-50.162Zm-74.68-97.062a83 83 0 0 0 12.917 1.021 80.63 80.63 0 0 0 49.045-16.548 83.3 83.3 0 0 0 10.795-9.881 80.52 80.52 0 0 0 21.187-54.522 73.4 73.4 0 0 1 8.127-33.691v-.024a74.34 74.34 0 0 1 31.815-31.875l-.226-.086h-.025a94.7 94.7 0 0 1-32.818-20.936 111.2 111.2 0 0 0-28.059 32.089 109 109 0 0 0-14.56 54.523c-.015 34.839-37.736 56.597-67.9 39.166a45 45 0 0 1-4.856-3.241 184 184 0 0 0 14.557 44.002Zm-18.036-78.589c1.058 23.826 27.512 37.573 47.617 24.743a30.98 30.98 0 0 0 14.316-26.084q0-.548.005-1.094c-.864-23.835-27.205-37.795-47.415-25.131a30.98 30.98 0 0 0-14.528 26.225q0 .673.005 1.341"/></svg>